<?xml version="1.0" encoding="UTF-8"?>
<!DOCTYPE svg PUBLIC "-//W3C//DTD SVG 1.1//EN" "http://www.w3.org/Graphics/SVG/1.1/DTD/svg11.dtd">
<!-- Creator: CorelDRAW 2020 (64-Bit) -->
<svg xmlns="http://www.w3.org/2000/svg" xml:space="preserve" width="140.675mm" height="80.6207mm" version="1.1" style="shape-rendering:geometricPrecision; text-rendering:geometricPrecision; image-rendering:optimizeQuality; fill-rule:evenodd; clip-rule:evenodd"
viewBox="0 0 4285.63 2456.09"
 xmlns:xlink="http://www.w3.org/1999/xlink"
 xmlns:xodm="http://www.corel.com/coreldraw/odm/2003">
 <defs>
  <style type="text/css">
   <![CDATA[
    .fil1 {fill:#AD3E3E}
    .fil0 {fill:#AD3E3E;fill-rule:nonzero}
   ]]>
  </style>
 </defs>
 <g id="Layer_x0020_1">
  <metadata id="CorelCorpID_0Corel-Layer"/>
  <path class="fil0" d="M383.83 2010.32l-276.93 0 0 111.99 254.27 0 0 90.9 -254.27 0 0 134.52 289.78 0 0 93.81 -396.68 0 0 -523.57 383.83 0 0 92.34zm99.75 -92.34l108.34 0 0 214.88 201.43 -214.88 141.31 0 -213.79 215.97 224.83 307.6 -140.59 0 -161.07 -228.09 -52.12 52.96 0 175.13 -108.34 0 0 -523.57zm665.61 325.78l133.79 0 -65.93 -206.04 -67.87 206.04zm7.38 -325.78l123.63 0 184.46 523.57 -118.53 0 -34.42 -107.63 -192.22 0 -35.51 107.63 -113.93 0 186.52 -523.57zm903.15 163.61c-8.24,-35.76 -28.6,-60.6 -60.72,-74.78 -18.05,-7.88 -38.05,-11.76 -60.11,-11.76 -42.17,0 -76.84,15.88 -103.86,47.63 -27.15,31.75 -40.72,79.5 -40.72,143.26 0,64.23 14.66,109.68 44.11,136.35 29.33,26.66 62.66,39.99 100.11,39.99 36.73,0 66.78,-10.54 90.29,-31.51 23.39,-21.08 37.94,-48.59 43.39,-82.65l-121.56 0 0 -87.26 218.15 0 0 280.69 -71.99 0 -11.27 -65.45c-21.08,24.61 -40,42.06 -56.84,52.12 -28.85,17.57 -64.48,26.42 -106.54,26.42 -69.45,0 -126.29,-24 -170.52,-71.99 -46.18,-48.11 -69.33,-114.05 -69.33,-197.79 0,-84.6 23.39,-152.34 70.05,-203.37 46.66,-51.03 108.35,-76.59 185.07,-76.59 66.53,0 120.1,16.84 160.46,50.53 40.36,33.69 63.51,75.75 69.45,126.17l-107.63 0zm322.75 -73.45l0 141.08 117.8 0c23.4,0 40.85,-2.91 52.61,-8.6 20.73,-9.94 31.02,-29.57 31.02,-59.02 0,-31.87 -10.06,-53.21 -30.05,-64.23 -11.27,-6.18 -28.12,-9.22 -50.54,-9.22l-120.83 0zm143.62 -90.16c35.75,0.72 63.26,5.21 82.54,13.45 19.27,8.36 35.63,20.48 49.08,36.6 11.03,13.21 19.88,27.87 26.3,43.87 6.43,16.12 9.7,34.41 9.7,55.02 0,24.85 -6.31,49.21 -18.78,73.21 -12.61,24 -33.33,40.96 -62.17,50.89 24.12,9.7 41.2,23.52 51.27,41.45 10.06,17.82 15.15,45.21 15.15,81.93l0 35.27c0,24 0.96,40.24 2.9,48.72 2.91,13.58 9.7,23.52 20.36,29.94l0 13.21 -121.08 0c-3.39,-11.64 -5.82,-20.97 -7.27,-28.12 -2.91,-14.66 -4.48,-29.81 -4.73,-45.2l-0.73 -48.84c-0.48,-33.45 -6.18,-55.75 -17.33,-66.9 -11.03,-11.16 -31.75,-16.73 -62.17,-16.73l-106.65 0 0 205.8 -106.89 0 0 -523.57 250.51 0zm503.45 445.76c43.63,0 78.18,-16 103.74,-47.99 25.58,-32.12 38.3,-77.69 38.3,-136.71 0,-58.9 -12.73,-104.35 -38.3,-136.47 -25.57,-32.11 -60.11,-48.23 -103.74,-48.23 -43.51,0 -78.17,15.99 -104.1,47.99 -25.94,32.11 -38.91,77.68 -38.91,136.71 0,59.02 12.97,104.59 38.91,136.71 25.94,31.99 60.59,47.99 104.1,47.99zm250.4 -184.71c0,94.05 -26.42,166.04 -79.14,215.97 -39.63,40.73 -96.71,61.08 -171.49,61.08 -74.9,0 -131.98,-20.36 -171.61,-61.08 -52.97,-49.93 -79.5,-121.92 -79.5,-215.97 0,-95.87 26.54,-167.86 79.5,-215.97 39.63,-40.72 96.71,-61.08 171.61,-61.08 74.78,0 131.86,20.37 171.49,61.08 52.73,48.11 79.14,120.1 79.14,215.97zm83.51 -261.05l111.26 0 0 321.53c0,35.99 4.24,62.17 12.72,78.78 13.34,29.33 42.18,43.99 86.78,43.99 44.24,0 72.96,-14.66 86.29,-43.99 8.48,-16.6 12.73,-42.78 12.73,-78.78l0 -321.53 111.26 0 0 321.53c0,55.63 -8.61,98.89 -25.94,129.92 -32.23,56.84 -93.69,85.2 -184.34,85.2 -90.77,0 -152.34,-28.36 -184.83,-85.2 -17.32,-31.03 -25.93,-74.29 -25.93,-129.92l0 -321.53zm813.83 166.15c0,-27.39 -6.91,-46.9 -20.73,-58.54 -13.93,-11.63 -33.33,-17.45 -58.17,-17.45l-98.53 0 0 154.9 98.53 0c24.85,0 44.24,-6.31 58.17,-18.91 13.82,-12.6 20.73,-32.6 20.73,-59.99zm108.35 -0.36c0,61.81 -15.27,105.56 -45.93,131.13 -30.54,25.58 -74.29,38.3 -131.01,38.3l-108.84 0 0 188.34 -108.35 0 0 -523.57 224.34 0c51.76,0 92.95,13.45 123.63,40.48 30.78,27.03 46.17,68.72 46.17,125.32z"/>
  <path class="fil1" d="M1320.05 805.13c0,89.05 3.6,144.84 25.47,232.38 20.64,82.65 55.1,160.02 99.4,232.36l31 46.04c29.8,39.46 60.28,75.46 95.3,110.68 2.35,2.37 3.85,4.12 6.3,6.28 20.27,17.86 40.19,36.67 61.92,52.86 33.78,25.16 69.98,52.52 107.73,71.52 86.35,43.44 122.48,60.86 223.5,84.67 33.22,7.84 73.92,14.1 110.47,16.89 18.95,1.45 39.99,2.86 59.84,3.24l17.89 0c7.64,-0.32 11.55,-1.65 21.21,-1.59 8.7,0.05 16.2,0.32 24.27,-0.89 7.02,-1.05 17.32,-1.34 23.18,-1.97 9.56,-1.02 14.99,-1.11 24.45,-2.28 49.69,-6.18 98.43,-16.76 145.3,-32.37 49.01,-16.33 96.6,-37.48 141.23,-63.17 5.52,-3.18 10.92,-6.29 16.89,-9.84l45.79 -29.68c22.53,-15.28 65.27,-47.74 85.59,-68.49l14.18 -12.55c53.82,-51.81 97.89,-105.84 138.25,-168.35 7.11,-11.01 12.59,-20.86 19.47,-32.42 6.74,-11.31 12.21,-22.43 17.96,-33.93 2.85,-5.69 5.3,-10.64 8.38,-16.77 3.35,-6.65 5.15,-11.62 8.38,-18.35 11.37,-23.67 20.61,-47.79 29.04,-73.16 34.64,-104.27 49.29,-216.25 40.76,-327.35l-3.24 -37.64 -1083.32 0c2.03,-24.38 44.17,-84.51 64.06,-104.17 29.2,-28.86 62.32,-51.84 100.79,-67.45 87.37,-35.45 191.7,-24.63 270.05,27.6 16.17,10.78 30.55,22.42 44.15,36.04 7.57,7.57 23.91,4.21 42.96,4.21 64.47,0 128.93,0 193.39,0 -0.92,-11.07 -9.17,-21.36 -13.64,-30.39 -7.29,-14.73 -16.79,-28.54 -25.66,-41.95l-49.93 -61.71 -40.79 -37.83c-131.05,-110.19 -308.06,-140.09 -470.82,-86.2 -14.29,4.73 -31.2,11.26 -43.84,17.48 -13.5,6.65 -26.37,13.48 -39.28,20.46 -38.96,21.07 -87.8,59.17 -116.82,93.87 -2.4,2.87 -4.42,4.49 -7.03,7.12 -3.64,3.66 -3.98,4.83 -7.14,8.58 -9.71,11.56 -17.43,21.11 -25.91,33.83 -57.58,86.4 -88.38,169.58 -88.38,285.83 0,39.54 5.8,73.44 13.19,106.3 15.84,70.41 52.01,145.71 99.61,199.14 2.99,3.36 3.47,4.64 6.32,7.83 36.04,40.53 77.24,74.19 123.9,102.51 63.85,38.75 150.15,65.35 234.96,65.35 62.62,0 117.31,-7.83 168.91,-27.63 111.21,-42.68 197.91,-122.71 253.53,-226.03 5.42,-10.07 9.54,-19.66 14.67,-29.36l-224.92 -0.08c-13.16,-0.12 -13.04,2.96 -21.54,11.48 -10.36,10.39 -23.18,21.14 -34.99,29.48 -5.61,3.96 -13.1,9.17 -18.93,12.52 -74.7,42.92 -168.35,45.3 -246.28,8.98 -59.67,-27.82 -103,-69.58 -136.64,-125.93 -4.25,-7.12 -17.27,-33.52 -17.96,-41.79l866.35 0c0,31.46 -33.34,130.94 -46.12,158.28 -31.09,66.49 -48.69,91.97 -92.24,148.33 -2.93,3.8 -5.14,5.53 -8.09,9.2l-33.25 35.93c-31.88,26.65 -49.01,43.93 -85.7,68.39 -41.83,27.89 -88.59,50.84 -137.31,67.1 -17.06,5.69 -35.15,11.14 -53.92,15.27 -90.04,19.81 -193.23,19.95 -282.36,-2.49 -83.78,-21.09 -161.24,-57.77 -229.57,-110.04l-31.05 -25.56c-4.33,-4.05 -5.38,-5.1 -10.05,-8.82 -16.04,-12.8 -33.58,-33.14 -47.31,-48.6 -3.47,-3.9 -4.86,-6.13 -8.66,-10.21 -28.17,-30.25 -70.68,-98.28 -87.54,-138.87 -15.32,-36.9 -29.72,-72.69 -38.97,-111.97 -25.87,-109.79 -23.24,-240.94 16.94,-346.92 16.9,-44.58 35.58,-88.52 62.02,-128.23l47.64 -65.57 36.86 -40.19c31.91,-31.91 67.2,-59.21 104.81,-83.86 8.52,-5.58 14.33,-9.23 23.42,-14.31 164.41,-91.94 345.81,-107.14 524.87,-43.14 43.33,15.49 84.65,37.36 122.75,62.78 24.38,16.26 49.01,33.79 70.02,54.19l15.75 14.12c44.42,44.56 76.81,85.39 109.19,139.24 11.77,19.59 21.78,40.89 31.12,61.65l13.43 33.73c1.71,4.54 1.99,8.69 7.03,8.69l218.55 0c0,-17.44 -13.19,-49.76 -19.07,-67.41 -23.57,-70.77 -59.3,-144.17 -103.81,-204.36 -6.46,-8.74 -11.89,-16.92 -18.4,-25.62 -6.44,-8.61 -12.6,-16.16 -19.46,-24.57l-30.7 -35.33c-4.71,-4.63 -6.02,-7.31 -10.19,-11.83 -17.62,-19.06 -37.3,-36.3 -56.61,-53.45 -117.81,-104.69 -280.15,-181 -438.3,-198.49 -106.71,-11.8 -206.74,-8.05 -310.69,17.93 -52.91,13.23 -99.54,30.99 -148.45,52.81 -61.6,27.48 -117.62,64.75 -170.47,106.26 -18.81,14.77 -35.71,31.54 -53.89,46.74 -30.28,25.31 -80,88.97 -104.47,121.94 -35.12,47.32 -67.3,107.62 -89.16,162.41 -2.59,6.49 -4.46,11.19 -7.19,17.97 -2.68,6.64 -4.12,11.84 -6.72,18.44 -28.27,71.47 -47.63,175.75 -47.63,254.25z"/>
 </g>
</svg>
